<?xml version="1.0" encoding="UTF-8" standalone="no"?>
<!-- Uploaded to: SVG Repo, www.svgrepo.com, Generator: SVG Repo Mixer Tools -->

<svg
   width="450"
   height="800.00781"
   viewBox="0 0 72 128.00125"
   data-name="Слой 1"
   id="Слой_1"
   version="1.1"
   sodipodi:docname="logo.svg"
   inkscape:version="1.3.2 (091e20e, 2023-11-25)"
   inkscape:export-filename="logo.png"
   inkscape:export-xdpi="96"
   inkscape:export-ydpi="96"
   xmlns:inkscape="http://www.inkscape.org/namespaces/inkscape"
   xmlns:sodipodi="http://sodipodi.sourceforge.net/DTD/sodipodi-0.dtd"
   xmlns="http://www.w3.org/2000/svg"
   xmlns:svg="http://www.w3.org/2000/svg">
  <sodipodi:namedview
     id="namedview3"
     pagecolor="#ffffff"
     bordercolor="#000000"
     borderopacity="0.25"
     inkscape:showpageshadow="2"
     inkscape:pageopacity="0.0"
     inkscape:pagecheckerboard="0"
     inkscape:deskcolor="#d1d1d1"
     inkscape:zoom="0.87625"
     inkscape:cx="250.49929"
     inkscape:cy="389.72896"
     inkscape:window-width="2880"
     inkscape:window-height="1620"
     inkscape:window-x="1080"
     inkscape:window-y="107"
     inkscape:window-maximized="0"
     inkscape:current-layer="Слой_1" />
  <defs
     id="defs1">
    <style
       id="style1">.cls-1{fill:#ffffff;}.cls-2{fill:#404040;}</style>
  </defs>
  <title
     id="title1" />
  <g
     id="g3"
     inkscape:label="mobile"
     transform="translate(-28,6.2272124e-4)">
    <path
       class="cls-1"
       d="M 98,52.91 V 9.75 A 7.9,7.9 0 0 0 90,2 H 38 a 7.9,7.9 0 0 0 -8,7.75 v 108.5 a 7.9,7.9 0 0 0 8,7.75 h 52 a 7.9,7.9 0 0 0 8,-7.75 z"
       id="path1" />
    <path
       class="cls-2"
       d="M 90,128 H 38 A 9.89,9.89 0 0 1 28,118.25 V 9.75 A 9.89,9.89 0 0 1 38,0 h 52 a 9.89,9.89 0 0 1 10,9.75 v 108.5 A 9.89,9.89 0 0 1 90,128 Z M 38,4 a 5.89,5.89 0 0 0 -6,5.75 v 108.5 a 5.89,5.89 0 0 0 6,5.75 h 52 a 5.89,5.89 0 0 0 6,-5.75 V 9.75 A 5.89,5.89 0 0 0 90,4 Z"
       id="path2" />
    <path
       class="cls-2"
       d="M 75.05,12 H 52.95 C 50.22,12 48,9.43 48,6.28 V 2.49 h 4 v 3.79 c 0,1 0.57,1.72 0.95,1.72 h 22.1 C 75.43,8 76,7.31 76,6.28 V 3.11 h 4 V 6.28 C 80,9.43 77.78,12 75.05,12 Z"
       id="path3" />
  </g>
  <g
     id="g11"
     style="clip-rule:evenodd;fill-rule:evenodd;stroke-linejoin:round;stroke-miterlimit:1.41421"
     transform="matrix(0.32517694,0,0,0.3476714,-6.579383,2.4819473)"
     inkscape:label="view">
    <path
       d="m 191.33,62.954 c 1.527,0.181 1.928,0.415 2.664,0.866 3.049,1.868 3.769,6.697 1.107,9.358 -1.111,1.112 -2.657,1.695 -4.242,1.758 H 93.991 c -1.537,-0.061 -1.955,-0.262 -2.724,-0.654 -3.327,-1.695 -4.297,-6.811 -1.519,-9.589 1.111,-1.111 2.657,-1.695 4.243,-1.757 h 96.868 c 0.157,0.006 0.314,0.012 0.471,0.018 z"
       style="fill:#2196f3;fill-opacity:1;fill-rule:nonzero"
       id="path1-2" />
    <path
       d="m 136.145,94.956 c 5.011,0.395 7.919,8.167 2.686,11.188 -0.635,0.367 -1.337,0.616 -2.062,0.73 -0.31,0.049 -0.624,0.066 -0.938,0.074 h -41.84 c -5.159,-0.135 -8.337,-8.115 -3,-11.196 0.635,-0.367 1.337,-0.615 2.061,-0.73 0.31,-0.049 0.624,-0.066 0.939,-0.074 h 41.84 c 0.105,0.003 0.209,0.006 0.314,0.008 z"
       style="fill:#2196f3;fill-opacity:1;fill-rule:nonzero"
       id="path2-2" />
    <path
       d="m 191.128,94.954 c 4.424,0.299 7.487,6.236 4.249,9.942 -1.123,1.285 -2.793,2.013 -4.518,2.052 h -30.277 c -4.361,-0.098 -7.649,-5.68 -4.854,-9.527 1.11,-1.526 2.945,-2.43 4.854,-2.473 h 30.277 c 0.09,0.002 0.179,0.004 0.269,0.006 z"
       style="fill:#2196f3;fill-opacity:1;fill-rule:nonzero"
       id="path3-5" />
    <path
       d="m 191.128,155.586 c 4.461,0.3 7.443,6.286 4.249,9.941 -1.123,1.286 -2.793,2.014 -4.518,2.053 h -30.277 c -4.548,-0.102 -7.823,-6.165 -4.518,-9.948 1.123,-1.285 2.793,-2.014 4.518,-2.052 h 30.277 c 0.09,0.002 0.179,0.004 0.269,0.006 z"
       style="fill:#1d61e1;fill-opacity:0.290196;fill-rule:nonzero"
       id="path4-2" />
    <path
       d="m 136.281,155.588 c 4.251,0.335 7.268,5.763 4.54,9.518 -1.108,1.525 -2.951,2.424 -4.854,2.474 H 93.991 c -5.115,-0.134 -8.274,-8.152 -3,-11.196 0.635,-0.367 1.337,-0.616 2.061,-0.73 0.31,-0.05 0.624,-0.066 0.939,-0.074 h 41.976 c 0.105,0.002 0.209,0.005 0.314,0.008 z"
       style="fill:#2196f3;fill-opacity:1;fill-rule:nonzero"
       id="path5-2" />
    <path
       d="m 191.26,124.725 c 4.371,0.44 7.291,6.181 4.181,9.86 -1.12,1.325 -2.225,2.048 -4.582,2.126 H 122.84 c -4.558,-0.152 -7.78,-6.091 -4.582,-9.873 1.12,-1.325 2.224,-2.048 4.582,-2.127 h 68.019 c 0.133,0.005 0.267,0.009 0.401,0.014 z"
       style="fill:#1d61e1;fill-opacity:0.290196;fill-rule:nonzero"
       id="path6" />
    <path
       d="m 80.029,64.248 c 0,-0.778 -0.309,-1.523 -0.858,-2.073 -0.55,-0.55 -1.296,-0.859 -2.073,-0.859 -2.612,0 -6.414,0 -9.025,0 -0.778,0 -1.523,0.309 -2.073,0.859 -0.55,0.55 -0.859,1.295 -0.859,2.073 0,2.698 0,6.678 0,9.376 0,0.777 0.309,1.523 0.859,2.073 0.55,0.549 1.295,0.858 2.073,0.858 2.611,0 6.413,0 9.025,0 0.777,0 1.523,-0.309 2.073,-0.858 0.549,-0.55 0.858,-1.296 0.858,-2.073 0,-2.698 0,-6.678 0,-9.376 z"
       style="fill:#2196f3;fill-opacity:1"
       id="path8" />
    <path
       d="m 80.029,96.26 c 0,-0.777 -0.309,-1.523 -0.858,-2.073 -0.55,-0.55 -1.296,-0.858 -2.073,-0.858 -2.612,0 -6.414,0 -9.025,0 -0.778,0 -1.523,0.308 -2.073,0.858 -0.55,0.55 -0.859,1.296 -0.859,2.073 0,2.698 0,6.678 0,9.376 0,0.778 0.309,1.523 0.859,2.073 0.55,0.55 1.295,0.859 2.073,0.859 2.611,0 6.413,0 9.025,0 0.777,0 1.523,-0.309 2.073,-0.859 0.549,-0.55 0.858,-1.295 0.858,-2.073 0,-2.698 0,-6.678 0,-9.376 z"
       style="fill:#2196f3;fill-opacity:1"
       id="path9" />
    <path
       d="m 80.029,156.892 c 0,-0.778 -0.309,-1.523 -0.858,-2.073 -0.55,-0.55 -1.296,-0.859 -2.073,-0.859 -2.612,0 -6.414,0 -9.025,0 -0.778,0 -1.523,0.309 -2.073,0.859 -0.55,0.55 -0.859,1.295 -0.859,2.073 0,2.698 0,6.678 0,9.376 0,0.777 0.309,1.523 0.859,2.073 0.55,0.549 1.295,0.858 2.073,0.858 2.611,0 6.413,0 9.025,0 0.777,0 1.523,-0.309 2.073,-0.858 0.549,-0.55 0.858,-1.296 0.858,-2.073 0,-2.698 0,-6.678 0,-9.376 z"
       style="fill:#2196f3;fill-opacity:1"
       id="path10" />
    <path
       d="m 108.879,126.023 c 0,-0.777 -0.309,-1.523 -0.859,-2.072 -0.55,-0.55 -1.295,-0.859 -2.073,-0.859 -2.612,0 -6.413,0 -9.025,0 -0.777,0 -1.523,0.309 -2.073,0.859 -0.55,0.549 -0.858,1.295 -0.858,2.072 0,2.698 0,6.679 0,9.376 0,0.778 0.308,1.524 0.858,2.073 0.55,0.55 1.296,0.859 2.073,0.859 2.612,0 6.413,0 9.025,0 0.778,0 1.523,-0.309 2.073,-0.859 0.55,-0.549 0.859,-1.295 0.859,-2.073 0,-2.697 0,-6.678 0,-9.376 z"
       style="fill:#1d61e1;fill-opacity:0.290196"
       id="path11" />
  </g>
  <path
     id="path1-7"
     style="fill:#4d4d4d;fill-opacity:1;stroke-width:0.654411"
     class="cls-1"
     d="M 3.948438,81.255889 V 121.0899 a 7.4757322,3.5752046 0 0 0 7.570312,3.50728 h 49.2075 a 7.4757322,3.5752046 0 0 0 7.570313,-3.50728 V 91.51957 81.255889 Z"
     inkscape:label="background" />
  <g
     id="g5"
     transform="matrix(1.3679959,0,0,1.3870091,14.111382,82.719267)"
     inkscape:label="json">
    <path
       d="m 12.815,15.167 0.68,-5.676 h 6.489 v 2 h -4.4 L 15.329,13.7 a 2.4,2.4 0 0 1 0.252,-0.122 2.962,2.962 0 0 1 0.374,-0.13 2.9,2.9 0 0 1 0.458,-0.106 2.834,2.834 0 0 1 0.512,-0.046 3.983,3.983 0 0 1 1.466,0.252 2.736,2.736 0 0 1 1.076,0.723 3.167,3.167 0 0 1 0.664,1.168 5,5 0 0 1 0.228,1.588 4.157,4.157 0 0 1 -0.236,1.387 3.307,3.307 0 0 1 -1.9,2.029 4.3,4.3 0 0 1 -1.715,0.312 A 4.75,4.75 0 0 1 15.05,20.527 4.054,4.054 0 0 1 13.798,19.871 3.359,3.359 0 0 1 12.92,18.825 2.787,2.787 0 0 1 12.6,17.443 h 2.58 a 1.458,1.458 0 0 0 0.39,0.97 1.383,1.383 0 0 0 1.558,0.206 1.089,1.089 0 0 0 0.4,-0.412 1.749,1.749 0 0 0 0.206,-0.618 4.3,4.3 0 0 0 0.062,-0.74 2.709,2.709 0 0 0 -0.092,-0.74 1.506,1.506 0 0 0 -0.282,-0.558 1.229,1.229 0 0 0 -0.5,-0.349 1.78,1.78 0 0 0 -0.718,-0.13 2.121,2.121 0 0 0 -0.5,0.054 1.805,1.805 0 0 0 -0.382,0.138 1.318,1.318 0 0 0 -0.274,0.19 1.28,1.28 0 0 0 -0.19,0.2 L 12.81,15.172"
       style="fill:#ffffff"
       id="path1-9" />
    <path
       d="M 5.985,23.343 A 4.45,4.45 0 0 1 4.674,22.763 3.2,3.2 0 0 1 3.826,21.939 3.012,3.012 0 0 1 3.368,20.931 4.879,4.879 0 0 1 3.238,19.788 v -1.55 A 2.3,2.3 0 0 0 3.162,17.62 1.184,1.184 0 0 0 2.94,17.154 0.969,0.969 0 0 0 2.558,16.848 1.324,1.324 0 0 0 2,16.744 v -1.732 a 1.074,1.074 0 0 0 0.937,-0.4 1.841,1.841 0 0 0 0.3,-1.1 v -1.55 A 4.879,4.879 0 0 1 3.367,10.819 3.037,3.037 0 0 1 3.825,9.811 3.17,3.17 0 0 1 4.671,9 4.482,4.482 0 0 1 5.982,8.42 l 0.48,1.344 a 1.222,1.222 0 0 0 -0.488,0.328 1.742,1.742 0 0 0 -0.306,0.5 2.524,2.524 0 0 0 -0.16,0.634 5.827,5.827 0 0 0 -0.046,0.74 v 1.55 A 2.844,2.844 0 0 1 5.126,14.9 2.37,2.37 0 0 1 4.05,15.883 a 2.356,2.356 0 0 1 1.076,0.992 2.808,2.808 0 0 1 0.336,1.374 v 1.55 a 5.827,5.827 0 0 0 0.046,0.74 2.586,2.586 0 0 0 0.16,0.634 1.684,1.684 0 0 0 0.306,0.5 A 1.222,1.222 0 0 0 6.462,22 c 0,-0.005 -0.477,1.344 -0.477,1.344"
       style="fill:#999999"
       id="path2-3" />
    <path
       d="m 8.215,19.393 a 1.289,1.289 0 0 1 0.1,-0.512 1.212,1.212 0 0 1 0.29,-0.4 1.373,1.373 0 0 1 0.45,-0.274 1.637,1.637 0 0 1 0.58,-0.1 1.555,1.555 0 0 1 0.572,0.1 1.269,1.269 0 0 1 0.45,0.274 1.077,1.077 0 0 1 0.29,0.4 1.294,1.294 0 0 1 0,1.024 1.151,1.151 0 0 1 -0.29,0.412 1.388,1.388 0 0 1 -0.45,0.268 1.613,1.613 0 0 1 -0.572,0.1 1.578,1.578 0 0 1 -0.58,-0.1 1.409,1.409 0 0 1 -0.45,-0.268 1.229,1.229 0 0 1 -0.39,-0.924 m 0,-6.088 a 1.289,1.289 0 0 1 0.1,-0.512 1.212,1.212 0 0 1 0.29,-0.4 1.373,1.373 0 0 1 0.45,-0.274 1.637,1.637 0 0 1 0.58,-0.1 1.555,1.555 0 0 1 0.572,0.1 1.269,1.269 0 0 1 0.45,0.274 1.077,1.077 0 0 1 0.29,0.4 1.294,1.294 0 0 1 0,1.024 1.151,1.151 0 0 1 -0.29,0.412 1.388,1.388 0 0 1 -0.45,0.268 1.613,1.613 0 0 1 -0.572,0.1 1.578,1.578 0 0 1 -0.58,-0.1 1.409,1.409 0 0 1 -0.45,-0.268 1.229,1.229 0 0 1 -0.39,-0.924"
       style="fill:#999999"
       id="path3-8" />
    <path
       d="m 24.24,20.293 a 3.648,3.648 0 0 1 -0.122,0.929 4.534,4.534 0 0 1 -0.336,0.891 4.706,4.706 0 0 1 -0.5,0.807 4.005,4.005 0 0 1 -0.61,0.664 l -1.3,-0.61 c 0.081,-0.173 0.168,-0.349 0.26,-0.526 a 4.846,4.846 0 0 0 0.268,-0.558 4.443,4.443 0 0 0 0.206,-0.656 3.406,3.406 0 0 0 0.084,-0.8 v -1.778 h 2.059 l -0.008,1.636"
       style="fill:#999999"
       id="path4" />
    <path
       d="m 25.538,21.994 a 1.251,1.251 0 0 0 0.488,-0.328 1.707,1.707 0 0 0 0.306,-0.5 2.525,2.525 0 0 0 0.16,-0.634 5.826,5.826 0 0 0 0.046,-0.74 v -1.55 a 2.844,2.844 0 0 1 0.336,-1.382 2.364,2.364 0 0 1 1.084,-0.983 2.364,2.364 0 0 1 -1.084,-0.983 2.844,2.844 0 0 1 -0.336,-1.382 v -1.55 a 5.827,5.827 0 0 0 -0.046,-0.74 2.586,2.586 0 0 0 -0.16,-0.634 1.684,1.684 0 0 0 -0.306,-0.5 1.222,1.222 0 0 0 -0.488,-0.328 l 0.48,-1.338 A 4.45,4.45 0 0 1 27.329,9 a 3.092,3.092 0 0 1 0.848,0.815 2.892,2.892 0 0 1 0.45,1.008 4.606,4.606 0 0 1 0.138,1.143 v 1.55 a 2.655,2.655 0 0 0 0.068,0.626 1.448,1.448 0 0 0 0.222,0.474 1.037,1.037 0 0 0 0.382,0.3 1.376,1.376 0 0 0 0.564,0.106 v 1.731 a 1.077,1.077 0 0 0 -0.946,0.412 1.828,1.828 0 0 0 -0.29,1.084 v 1.55 a 4.606,4.606 0 0 1 -0.138,1.143 2.915,2.915 0 0 1 -0.45,1.008 3.157,3.157 0 0 1 -0.848,0.824 4.482,4.482 0 0 1 -1.311,0.58 l -0.48,-1.352"
       style="fill:#999999"
       id="path5" />
  </g>
  <g
     id="g2"
     transform="matrix(0.0565698,0,0,0.04409769,21.518131,67.930552)"
     inkscape:label="arrow"
     style="fill:#fbc02d;fill-opacity:0.737255">
	<rect
   x="116.232"
   y="292.40799"
   style="fill:#ffffff;fill-opacity:1;stroke-width:0.718334"
   width="279.53601"
   height="113.31028"
   id="rect1" />
<polygon
   style="fill:#4d4d4d;fill-opacity:1"
   points="256,0 507.408,305.912 4.592,305.912 "
   id="polygon1"
   transform="matrix(1,0,0,0.70221537,0,91.095892)" />

	
</g>
</svg>
